<?xml version="1.0" standalone="no"?>
<!DOCTYPE svg PUBLIC "-//W3C//DTD SVG 20010904//EN"
 "http://www.w3.org/TR/2001/REC-SVG-20010904/DTD/svg10.dtd">
<svg version="1.0" xmlns="http://www.w3.org/2000/svg"
 width="500.000000pt" height="500.000000pt" viewBox="0 0 500.000000 500.000000"
 preserveAspectRatio="xMidYMid meet">
<metadata>
Created by potrace 1.16, written by Peter Selinger 2001-2019
</metadata>
<g transform="translate(0.000000,500.000000) scale(0.100000,-0.100000)"
fill="#000000" stroke="none">
<path d="M4069 4447 c-45 -24 -139 -129 -160 -179 l-11 -27 -66 35 c-155 80
-304 80 -470 -2 -74 -36 -109 -61 -174 -126 l-82 -80 -25 31 c-69 82 -204 80
-282 -6 -52 -58 -61 -81 -61 -167 -1 -62 -5 -89 -20 -113 -20 -34 -17 -53 9
-53 24 0 10 -92 -28 -181 -43 -102 -42 -111 6 -125 37 -10 40 -14 39 -47 -1
-32 1 -34 17 -24 21 13 24 23 9 32 -5 3 -10 14 -10 24 0 27 54 35 88 14 26
-17 27 -17 12 1 -12 15 -12 20 -2 24 25 8 74 56 114 110 l41 55 25 -76 c16
-50 39 -93 68 -128 30 -37 45 -66 50 -96 3 -24 11 -46 16 -49 7 -4 8 6 3 27
-4 19 -9 43 -11 54 -2 12 8 33 27 55 17 19 27 28 23 20 -4 -8 -14 -23 -22 -32
-22 -26 -7 -22 18 4 11 12 20 29 20 37 0 9 16 29 35 44 25 20 38 41 46 73 8
31 15 42 22 35 6 -6 7 -15 1 -24 -5 -7 1 -1 14 13 34 36 44 69 36 113 -4 28
-3 37 5 33 6 -4 11 -16 11 -27 0 -23 54 -51 79 -41 11 5 7 8 -13 12 -16 3 -31
11 -34 18 -8 25 32 6 95 -46 37 -30 46 -33 71 -24 22 8 32 6 51 -9 l23 -19
-25 0 c-47 0 -38 -18 11 -22 26 -2 49 0 50 4 7 15 39 8 58 -13 36 -40 67 -49
155 -44 46 3 101 9 122 14 20 5 37 6 37 2 0 -13 -48 -34 -64 -28 -9 4 -16 2
-16 -2 0 -18 33 -21 56 -6 23 15 24 14 24 -5 0 -12 -5 -30 -10 -41 -7 -13 -7
-19 -1 -19 12 0 24 38 21 66 -4 36 0 44 23 44 14 0 18 3 10 8 -10 6 -10 17 -3
42 13 47 13 177 -1 242 -7 29 -22 77 -35 107 -30 66 -29 69 2 105 l26 30 19
-25 c10 -13 40 -64 65 -114 26 -49 71 -128 101 -174 67 -103 183 -225 209
-219 13 3 18 11 17 26 -2 17 2 22 21 22 26 0 86 18 100 30 4 5 -13 28 -38 52
-27 27 -46 53 -46 67 0 12 -10 41 -22 64 -20 37 -23 62 -28 197 -5 142 -7 160
-32 213 -33 71 -147 188 -210 217 -61 28 -143 26 -199 -3z"/>
<path d="M3808 3075 c-21 -18 -28 -33 -28 -62 0 -60 -22 -83 -78 -83 -81 0
-91 6 -85 50 l5 37 -57 8 c-31 3 -59 4 -62 2 -9 -10 26 -63 71 -106 37 -37 52
-45 93 -48 56 -5 105 21 134 72 19 32 51 155 40 155 -3 0 -18 -12 -33 -25z"/>
<path d="M3284 3066 c-3 -8 -1 -23 4 -33 5 -10 13 -66 16 -125 7 -106 7 -106
-16 -111 -21 -4 -21 -4 4 -6 15 0 33 -10 41 -21 38 -54 54 72 27 214 -11 58
-16 69 -41 82 -26 13 -30 13 -35 0z"/>
<path d="M4150 2669 c0 -3 16 -36 35 -73 54 -104 45 -160 -35 -229 -107 -91
-250 -138 -431 -140 -102 -2 -120 0 -138 17 -20 18 -20 18 -11 -13 7 -24 4
-45 -12 -89 -15 -42 -20 -81 -20 -152 0 -106 2 -101 -73 -206 -53 -73 -55 -79
-55 -139 0 -34 -6 -81 -14 -103 -8 -22 -16 -82 -17 -133 l-3 -94 69 -18 c55
-14 99 -17 200 -14 149 5 206 22 293 87 48 36 52 38 61 21 7 -12 48 -29 123
-51 128 -38 256 -50 298 -28 35 19 62 82 68 159 5 74 -14 125 -73 190 -19 21
-40 61 -49 92 -9 31 -26 78 -38 104 -17 39 -22 78 -29 208 -5 96 -16 198 -29
255 -11 52 -25 126 -30 163 -6 37 -19 85 -30 105 -20 39 -59 91 -60 81z m269
-1031 c75 -87 63 -186 -27 -226 -49 -21 -173 -19 -271 5 l-74 18 44 29 c24 16
71 55 104 86 33 32 82 74 109 94 55 42 75 41 115 -6z m-857 -35 c24 -9 88 -43
143 -74 55 -31 119 -62 143 -69 35 -9 41 -14 32 -25 -43 -52 -249 -60 -351
-13 -58 26 -109 80 -109 113 0 10 11 33 26 52 29 38 53 41 116 16z m-102 -152
c94 -89 341 -103 428 -23 30 27 52 34 58 17 9 -23 -13 -43 -95 -85 -120 -60
-250 -71 -356 -30 -68 26 -107 90 -97 160 l5 34 16 -24 c9 -14 27 -36 41 -49z
m1004 -18 c-17 -73 -55 -103 -126 -103 -54 0 -308 70 -308 85 0 8 21 6 73 -7
159 -41 280 -33 334 22 16 15 29 28 31 29 1 0 -1 -11 -4 -26z"/>
</g>
</svg>
